#!OML:ASF I:\Actors\actors\Patient Classification 2\Patient 1\Session 1\actor1.ASF
:FULLY-SPECIFIED
:DEGREES
414
root -0.481868 18.7334 6.00303 3.25153 -3.00963 -4.31099
lowerback 6.81906 -4.09219 -1.58661
upperback 2.18876 -5.52032 1.56742
thorax -1.24408 -2.76631 2.91425
lowerneck -10.25 -6.31233 -6.19624
upperneck 32.8447 -8.69283 2.15633
head 13.0661 -4.40531 0.65555
rclavicle 3.57812e-014 -9.54166e-015
rhumerus -39.9095 7.29315 -68.1451
rradius 116.685
rwrist -9.15006
rhand -10.4059 -26.0919
rfingers 7.12502
rthumb 15.5927 -415.483
lclavicle 3.57812e-014 -9.54166e-015
lhumerus -1.61359 -52.0174 97.9665
lradius 80.5447
lwrist 12.3405
lhand -8.90472 -34.014
lfingers 7.12502
lthumb 17.0381 -4.74116
rfemur 0 0 0
rtibia 0
rfoot 0 0
rtoes 0
lfemur -6.38043 -3.69151 -10.241
ltibia 23.6723
lfoot -23.4466 12.3214
ltoes -55.3527
415
root -0.481634 18.7337 6.00265 3.24679 -3.13488 -4.26056
lowerback 6.88043 -4.12142 -1.53989
upperback 2.20413 -5.55632 1.57943
thorax -1.26326 -2.78408 2.90761
lowerneck -10.3158 -6.27522 -6.17569
upperneck 32.8631 -8.5913 2.00788
head 13.0733 -4.3759 0.60755
rclavicle -2.21645e-014 1.19271e-014
rhumerus -39.8154 7.85971 -68.6699
rradius 116.384
rwrist -8.58558
rhand -11.046 -25.6427
rfingers 7.12502
rthumb 14.9762 -415.081
lclavicle -2.21645e-014 1.19271e-014
lhumerus -1.32014 -52.2856 97.8787
lradius 79.8446
lwrist 12.919
lhand -9.6597 -34.6088
lfingers 7.12502
lthumb 16.3113 -5.27481
rfemur 0 0 0
rtibia 0
rfoot 0 0
rtoes 0
lfemur -6.32517 -3.65831 -10.3145
ltibia 23.6404
lfoot -23.466 12.3853
ltoes -55.274
416
root -0.481707 18.734 6.00317 3.21657 -3.20532 -4.19642
lowerback 6.97797 -4.1562 -1.50644
upperback 2.20931 -5.60079 1.58192
thorax -1.31218 -2.80548 2.90279
lowerneck -10.3596 -6.23156 -6.13493
upperneck 32.9044 -8.49676 1.88586
head 13.0864 -4.34432 0.565814
rclavicle 1.07344e-014 7.15625e-015
rhumerus -39.7714 8.311 -69.209
rradius 116.091
rwrist -7.96777
rhand -11.6636 -25.4492
rfingers 7.12502
rthumb 14.3812 -414.931
lclavicle 1.07344e-014 7.15625e-015
lhumerus -1.18283 -52.3824 97.9406
lradius 79.3106
lwrist 13.4234
lhand -9.94848 -35.1116
lfingers 7.12502
lthumb 16.0333 -5.75505
rfemur 0 0 0
rtibia 0
rfoot 0 0
rtoes 0
lfemur -6.25377 -3.67292 -10.4013
ltibia 23.6072
lfoot -23.5087 12.4421
ltoes -55.2334
417
root -0.481969 18.734 6.00399 3.2063 -3.22502 -4.16432
lowerback 7.06661 -4.19224 -1.46335
upperback 2.19995 -5.64563 1.61228
thorax -1.36925 -2.82691 2.92139
lowerneck -10.4137 -6.18525 -6.14326
upperneck 33.0108 -8.41299 1.83366
head 13.137 -4.31437 0.55623
rclavicle 7.95139e-015 -2.78299e-014
rhumerus -39.7843 8.69877 -69.6886
rradius 115.914
rwrist -8.13446
rhand -12.1869 -25.4359
rfingers 7.12502
rthumb 13.8769 -414.953
lclavicle 7.95139e-015 -2.78299e-014
lhumerus -1.1794 -52.3813 98.1625
lradius 78.9207
lwrist 13.7025
lhand -10.2378 -35.5884
lfingers 7.12502
lthumb 15.7546 -6.20964
rfemur 0 0 0
rtibia 0
rfoot 0 0
rtoes 0
lfemur -6.21337 -3.7072 -10.4455
ltibia 23.5726
lfoot -23.527 12.4701
ltoes -55.1396
418
root -0.483424 18.7346 6.00451 3.22304 -3.20348 -4.13581
lowerback 7.16606 -4.21244 -1.42191
upperback 2.16059 -5.66928 1.64012
thorax -1.46465 -2.83683 2.93946
lowerneck -10.4938 -6.15045 -6.10144
upperneck 33.1387 -8.35321 1.76978
head 13.2002 -4.28973 0.528927
rclavicle -1.82882e-014 2.54444e-014
rhumerus -39.8833 9.0478 -70.1306
rradius 115.845
rwrist -8.67996
rhand -12.4967 -25.3112
rfingers 7.12502
rthumb 13.5783 -414.848
lclavicle -1.82882e-014 2.54444e-014
lhumerus -1.23009 -52.4184 98.4441
lradius 78.5953
lwrist 13.9821
lhand -10.526 -36.128
lfingers 7.12502
lthumb 15.4771 -6.7275
rfemur 0 0 0
rtibia 0
rfoot 0 0
rtoes 0
lfemur -6.22104 -3.6739 -10.4663
ltibia 23.5434
lfoot -23.5167 12.4009
ltoes -55.0249
419
root -0.485636 18.7352 6.00594 3.23938 -3.15279 -4.12627
lowerback 7.24179 -4.22774 -1.36323
upperback 2.12062 -5.68517 1.65429
thorax -1.55113 -2.84295 2.93154
lowerneck -10.5305 -6.10938 -5.99087
upperneck 33.1896 -8.30494 1.72311
head 13.2183 -4.26036 0.497795
rclavicle -1.20265e-014 3.57812e-015
rhumerus -40.031 9.40154 -70.5745
rradius 115.817
rwrist -8.7261
rhand -13.0077 -25.3593
rfingers 7.12502
rthumb 13.0857 -414.929
lclavicle -1.20265e-014 3.57812e-015
lhumerus -1.29521 -52.4675 98.715
lradius 78.3441
lwrist 14.3296
lhand -10.7858 -36.6412
lfingers 7.12502
lthumb 15.2268 -7.22158
rfemur 0 0 0
rtibia 0
rfoot 0 0
rtoes 0
lfemur -6.23907 -3.65025 -10.4603
ltibia 23.5269
lfoot -23.5079 12.3447
ltoes -55.0123
420
root -0.487313 18.7351 6.00848 3.24602 -3.12091 -4.14244
lowerback 7.24557 -4.25902 -1.31505
upperback 2.12136 -5.7227 1.68658
thorax -1.55163 -2.86179 2.94117
lowerneck -10.564 -6.02452 -5.81322
upperneck 33.2246 -8.18777 1.61576
head 13.2185 -4.20055 0.44277
rclavicle -4.1049e-014 -3.97569e-015
rhumerus -40.1237 9.77129 -70.9721
rradius 115.82
rwrist -8.46269
rhand -13.2127 -25.3224
rfingers 7.12502
rthumb 12.8882 -414.904
lclavicle -4.1049e-014 -3.97569e-015
lhumerus -1.38514 -52.3921 98.9392
lradius 78.2547
lwrist 14.6003
lhand -10.9561 -36.9941
lfingers 7.12502
lthumb 15.0628 -7.56205
rfemur 0 0 0
rtibia 0
rfoot 0 0
rtoes 0
lfemur -6.24623 -3.68077 -10.4358
ltibia 23.5258
lfoot -23.492 12.3535
ltoes -55.0478
421
root -0.489414 18.7357 6.01131 3.25128 -3.10597 -4.16596
lowerback 7.2185 -4.29165 -1.28593
upperback 2.14454 -5.76311 1.74081
thorax -1.50756 -2.88316 2.98007
lowerneck -10.6828 -5.92048 -5.59056
upperneck 33.315 -8.01723 1.40836
head 13.2513 -4.12302 0.345543
rclavicle -4.06018e-014 2.42517e-014
rhumerus -40.1431 10.1314 -71.3014
rradius 115.868
rwrist -8.49264
rhand -13.446 -25.2587
rfingers 7.12502
rthumb 12.6632 -414.855
lclavicle -4.06018e-014 2.42517e-014
lhumerus -1.45146 -52.2682 99.0637
lradius 78.2783
lwrist 14.6629
lhand -11.0415 -37.3167
lfingers 7.12502
lthumb 14.9805 -7.87852
rfemur 0 0 0
rtibia 0
rfoot 0 0
rtoes 0
lfemur -6.26016 -3.6903 -10.4019
ltibia 23.54
lfoot -23.4859 12.3925
ltoes -55.1366
422
root -0.49182 18.7369 6.01462 3.26286 -3.06617 -4.19251
lowerback 7.16142 -4.30189 -1.21852
upperback 2.17973 -5.77125 1.78581
thorax -1.44118 -2.88875 2.98273
lowerneck -10.8399 -5.83274 -5.40375
upperneck 33.404 -7.87041 1.23657
head 13.2977 -4.05466 0.263071
rclavicle 4.93483e-014 -3.97569e-016
rhumerus -40.1201 10.4193 -71.5427
rradius 115.98
rwrist -8.75932
rhand -14.1527 -25.387
rfingers 7.12502
rthumb 11.9819 -415.024
lclavicle 4.93483e-014 -3.97569e-016
lhumerus -1.42284 -52.296 99.0355
lradius 78.3878
lwrist 14.7322
lhand -11.1472 -37.5461
lfingers 7.12502
lthumb 14.8787 -8.10043
rfemur 0 0 0
rtibia 0
rfoot 0 0
rtoes 0
lfemur -6.28984 -3.65298 -10.3585
ltibia 23.5607
lfoot -23.4467 12.3852
ltoes -55.2853
423
root -0.49344 18.7379 6.01793 3.27181 -3.01536 -4.19613
lowerback 7.10108 -4.28666 -1.12083
upperback 2.20897 -5.74407 1.79457
thorax -1.38801 -2.87609 2.92905
lowerneck -10.9502 -5.75568 -5.21067
upperneck 33.462 -7.74952 1.0889
head 13.3232 -3.9944 0.187117
rclavicle 8.88567e-014 -1.78906e-014
rhumerus -40.1188 10.618 -71.6853
rradius 116.164
rwrist -8.71695
rhand -14.599 -25.3667
rfingers 7.12502
rthumb 11.5514 -415.028
lclavicle 8.88567e-014 -1.78906e-014
lhumerus -1.37514 -52.4535 98.8972
lradius 78.6012
lwrist 14.9679
lhand -11.2678 -37.5957
lfingers 7.12502
lthumb 14.7625 -8.14144
rfemur 0 0 0
rtibia 0
rfoot 0 0
rtoes 0
lfemur -6.31485 -3.63424 -10.3451
ltibia 23.5754
lfoot -23.4069 12.3652
ltoes -55.3998
424
root -0.494369 18.7384 6.02173 3.27564 -2.9834 -4.18371
lowerback 7.07024 -4.25567 -1.02496
upperback 2.19745 -5.69623 1.77959
thorax -1.39656 -2.85166 2.85539
lowerneck -10.9204 -5.65481 -4.93319
upperneck 33.4746 -7.61384 0.920314
head 13.2927 -3.92251 0.096796
rclavicle 2.99668e-014 7.95139e-015
rhumerus -40.1809 10.7907 -71.759
rradius 116.402
rwrist -8.45528
rhand -14.6473 -25.0794
rfingers 7.12502
rthumb 11.5049 -414.744
lclavicle 2.99668e-014 7.95139e-015
lhumerus -1.55154 -52.5727 98.8358
lradius 78.9505
lwrist 15.1818
lhand -11.447 -37.5202
lfingers 7.12502
lthumb 14.5898 -8.05338
rfemur 0 0 0
rtibia 0
rfoot 0 0
rtoes 0
lfemur -6.32442 -3.676 -10.3606
ltibia 23.5843
lfoot -23.4248 12.4022
ltoes -55.4076
425
root -0.494507 18.7376 6.02722 3.29212 -2.96937 -4.16931
lowerback 7.02276 -4.22305 -0.943991
upperback 2.15287 -5.64725 1.75727
thorax -1.42918 -2.82608 2.78266
lowerneck -10.953 -5.4793 -4.87964
upperneck 33.7175 -7.4329 1.07875
head 13.4028 -3.81558 0.171736
rclavicle 3.57812e-015 -1.59028e-015
rhumerus -40.2511 11.0092 -71.8218
rradius 116.662
rwrist -8.31201
rhand -14.8173 -24.8086
rfingers 7.12502
rthumb 11.341 -414.482
lclavicle 3.57812e-015 -1.59028e-015
lhumerus -1.94533 -52.5725 98.8719
lradius 79.4403
lwrist 15.5626
lhand -11.4111 -37.2328
lfingers 7.12502
lthumb 14.6245 -7.76848
rfemur 0 0 0
rtibia 0
rfoot 0 0
rtoes 0
lfemur -6.33347 -3.69974 -10.3835
ltibia 23.5885
lfoot -23.4255 12.4013
ltoes -55.3619
426
root -0.495536 18.7368 6.03285 3.33271 -2.95102 -4.16792
lowerback 6.91126 -4.19386 -0.898674
upperback 2.11888 -5.60531 1.75531
thorax -1.40939 -2.80506 2.7449
lowerneck -11.2738 -5.25254 -5.25425
upperneck 34.3207 -7.2327 1.7045
head 13.7804 -3.68897 0.493244
rclavicle 8.78628e-014 -1.07344e-014
rhumerus -40.2616 11.3275 -71.8524
rradius 116.972
rwrist -8.30033
rhand -15.263 -24.9198
rfingers 7.12502
rthumb 10.9111 -414.616
lclavicle 8.78628e-014 -1.07344e-014
lhumerus -2.25812 -52.4962 98.7983
lradius 80.0119
lwrist 16.1871
lhand -11.1848 -36.9435
lfingers 7.12502
lthumb 14.8424 -7.49511
rfemur 0 0 0
rtibia 0
rfoot 0 0
rtoes 0
lfemur -6.36553 -3.69502 -10.3816
ltibia 23.5918
lfoot -23.4105 12.3612
ltoes -55.3561
427
root -0.498435 18.7371 6.03769 3.37772 -2.90034 -4.21402
lowerback 6.77597 -4.16151 -0.839255
upperback 2.10207 -5.558 1.78703
thorax -1.35683 -2.7821 2.73067
lowerneck -11.5518 -5.05182 -5.57344
upperneck 34.7908 -7.0459 2.23224
head 14.0859 -3.57528 0.775319
rclavicle 2.16675e-014 6.36111e-015
rhumerus -40.2192 11.7129 -71.7906
rradius 117.337
rwrist -8.41364
rhand -15.8016 -25.3251
rfingers 7.12502
rthumb 10.3916 -415.048
lclavicle 2.16675e-014 6.36111e-015
lhumerus -2.54425 -52.397 98.6887
lradius 80.6243
lwrist 16.6217
lhand -11.171 -36.9849
lfingers 7.12502
lthumb 14.8558 -7.5375
rfemur 0 0 0
rtibia 0
rfoot 0 0
rtoes 0
lfemur -6.41496 -3.73037 -10.3145
ltibia 23.6021
lfoot -23.4168 12.3475
ltoes -55.3778
428
root -0.501626 18.7374 6.04184 3.4042 -2.84119 -4.2844
lowerback 6.70195 -4.11527 -0.749316
upperback 2.07312 -5.48993 1.82215
thorax -1.35424 -2.74793 2.70759
lowerneck -11.5046 -4.89062 -5.00608
upperneck 34.7675 -6.814 1.83359
head 14.0054 -3.45386 0.557213
rclavicle 3.88624e-014 -4.77083e-015
rhumerus -40.2106 12.1043 -71.6732
rradius 117.738
rwrist -8.41073
rhand -16.1965 -25.6849
rfingers 7.12502
rthumb 10.0106 -415.427
lclavicle 3.88624e-014 -4.77083e-015
lhumerus -2.88768 -52.2936 98.6149
lradius 81.3172
lwrist 16.9215
lhand -11.1359 -37.0641
lfingers 7.12502
lthumb 14.8896 -7.61914
rfemur 0 0 0
rtibia 0
rfoot 0 0
rtoes 0
lfemur -6.45421 -3.72916 -10.2138
ltibia 23.6218
lfoot -23.406 12.2943
ltoes -55.3514
429
root -0.504346 18.7374 6.04577 3.41751 -2.8129 -4.32608
lowerback 6.64216 -4.05487 -0.680338
upperback 2.0567 -5.40496 1.83311
thorax -1.34774 -2.70537 2.67076
lowerneck -11.6173 -4.71888 -4.58765
upperneck 34.8937 -6.57764 1.57933
head 14.0449 -3.32813 0.416874
rclavicle 6.35117e-014 -7.95139e-015
rhumerus -40.1865 12.5009 -71.5718
rradius 118.175
rwrist -8.32072
rhand -16.2054 -25.9622
rfingers 7.12502
rthumb 10.002 -415.705
lclavicle 6.35117e-014 -7.95139e-015
lhumerus -3.14264 -52.1587 98.4615
lradius 82.0669
lwrist 17.2213
lhand -10.9018 -36.9461
lfingers 7.12502
lthumb 15.1151 -7.51803
rfemur 0 0 0
rtibia 0
rfoot 0 0
rtoes 0
lfemur -6.47209 -3.68098 -10.1459
ltibia 23.6442
lfoot -23.3925 12.2078
ltoes -55.2829
